<svg width="300" height="200" viewBox="0 0 300 200" xmlns="http://www.w3.org/2000/svg">
  <!-- Hollow Knight-like character, hand-drawn style -->
  <!-- Cape/body -->
  <path d="M 60 120 Q 90 140 120 170 Q 180 200 260 150 Q 240 120 180 130 Q 140 120 120 100 Q 100 90 60 120 Z"
        fill="#bdbdbd" stroke="#222" stroke-width="6"/>
  <!-- Extended leg -->
  <path d="M 180 130 Q 260 120 270 140 Q 250 160 220 150 Q 200 145 180 130 Z"
        fill="#bdbdbd" stroke="#222" stroke-width="7"/>
  <!-- Head -->
  <ellipse cx="80" cy="70" rx="35" ry="30" fill="#bdbdbd" stroke="#222" stroke-width="7"/>
  <!-- Horns -->
  <path d="M 55 55 Q 30 20 70 35" fill="none" stroke="#222" stroke-width="7"/>
  <path d="M 105 55 Q 140 10 110 45" fill="none" stroke="#222" stroke-width="7"/>
  <!-- Face (simple eyes) -->
  <ellipse cx="70" cy="75" rx="4" ry="7" fill="#222"/>
  <ellipse cx="90" cy="75" rx="4" ry="7" fill="#222"/>
  <!-- Arm (supporting) -->
  <path d="M 80 100 Q 70 120 60 140 Q 58 145 65 147 Q 75 140 80 130" fill="none" stroke="#222" stroke-width="6"/>
  <!-- Arm (extended) -->
  <path d="M 120 100 Q 140 80 180 110 Q 200 120 210 110 Q 200 130 180 120 Q 150 110 120 100 Z" fill="#bdbdbd" stroke="#222" stroke-width="6"/>
  <!-- Minimal shading -->
  <path d="M 120 170 Q 180 200 260 150" fill="none" stroke="#888" stroke-width="2" opacity="0.4"/>
  <!-- Dynamic pose lines -->
  <path d="M 130 130 Q 135 140 150 140" fill="none" stroke="#222" stroke-width="3" opacity="0.5"/>
</svg>